<svg xmlns="http://www.w3.org/2000/svg" viewBox="0 0 17.5 25.5"><title>moves</title><path d="M12,25.5H5.55A5.56,5.56,0,0,1,0,20v-6.6A2.35,2.35,0,0,1,2.35,11a2.38,2.38,0,0,1,.85.16V2.35A2.35,2.35,0,0,1,5.55,0h0A2.3,2.3,0,0,1,7.21.69,2.3,2.3,0,0,1,7.9,2.35V6.56a2.38,2.38,0,0,1,.85-.16h0A2.35,2.35,0,0,1,11,8.19,2.33,2.33,0,0,1,12,8h0a2.35,2.35,0,0,1,2.28,1.78,2.39,2.39,0,0,1,.92-.18h0A2.36,2.36,0,0,1,17.5,12v8A5.56,5.56,0,0,1,12,25.5Zm-9.6-13a.85.85,0,0,0-.85.85V20A4.06,4.06,0,0,0,5.55,24H12A4.06,4.06,0,0,0,16,20V12a.85.85,0,0,0-.85-.85h0a.85.85,0,0,0-.85.85h0a.75.75,0,0,1-1.5,0h0v-1.6A.85.85,0,0,0,12,9.5h0a.85.85,0,0,0-.85.85.75.75,0,0,1-1.5,0V8.75a.85.85,0,0,0-.85-.85h0a.85.85,0,0,0-.85.85.75.75,0,0,1-1.5,0V2.35a.85.85,0,0,0-.85-.85h0a.85.85,0,0,0-.85.85v11a.75.75,0,0,1-1.5,0A.85.85,0,0,0,2.35,12.5Z" fill="#fff"/></svg>